<svg xmlns="http://www.w3.org/2000/svg" viewBox="0 0 1200 700">
  <defs>
    <linearGradient id="erdHeaderGrad" x1="0%" y1="0%" x2="100%" y2="0%">
      <stop offset="0%" style="stop-color:#29B5E8;stop-opacity:1" />
      <stop offset="100%" style="stop-color:#0EA5E9;stop-opacity:1" />
    </linearGradient>
    <linearGradient id="erdGnnGrad" x1="0%" y1="0%" x2="100%" y2="0%">
      <stop offset="0%" style="stop-color:#30D158;stop-opacity:1" />
      <stop offset="100%" style="stop-color:#22C55E;stop-opacity:1" />
    </linearGradient>
    <filter id="erdShadow" x="-20%" y="-20%" width="140%" height="140%">
      <feDropShadow dx="0" dy="4" stdDeviation="6" flood-color="#000" flood-opacity="0.3"/>
    </filter>
  </defs>
  
  <!-- Background -->
  <rect width="1200" height="700" fill="#0f172a"/>
  
  <!-- Title -->
  <text x="600" y="40" font-family="system-ui, -apple-system, sans-serif" font-size="24" font-weight="600" fill="#F8FAFC" text-anchor="middle">Supply Chain Risk Data Model</text>
  
  <!-- Section Labels -->
  <text x="200" y="80" font-family="system-ui, -apple-system, sans-serif" font-size="14" fill="#94A3B8" text-anchor="middle">CORE ENTITIES</text>
  <text x="600" y="80" font-family="system-ui, -apple-system, sans-serif" font-size="14" fill="#94A3B8" text-anchor="middle">TRANSACTIONS</text>
  <text x="1000" y="80" font-family="system-ui, -apple-system, sans-serif" font-size="14" fill="#30D158" text-anchor="middle">GNN OUTPUTS</text>
  
  <!-- VENDORS Table -->
  <g transform="translate(50, 100)" filter="url(#erdShadow)">
    <rect width="180" height="180" rx="8" fill="#1E293B" stroke="#334155" stroke-width="1"/>
    <rect width="180" height="36" rx="8" fill="url(#erdHeaderGrad)"/>
    <rect y="36" width="180" height="0" fill="#1E293B"/>
    <text x="90" y="24" font-family="system-ui, -apple-system, sans-serif" font-size="14" font-weight="600" fill="white" text-anchor="middle">VENDORS</text>
    <text x="12" y="60" font-family="monospace" font-size="11" fill="#FCD34D">PK</text>
    <text x="36" y="60" font-family="monospace" font-size="11" fill="#E2E8F0">vendor_id</text>
    <text x="12" y="80" font-family="monospace" font-size="11" fill="#94A3B8">  </text>
    <text x="36" y="80" font-family="monospace" font-size="11" fill="#94A3B8">vendor_name</text>
    <text x="12" y="100" font-family="monospace" font-size="11" fill="#94A3B8">  </text>
    <text x="36" y="100" font-family="monospace" font-size="11" fill="#94A3B8">vendor_type</text>
    <text x="12" y="120" font-family="monospace" font-size="11" fill="#60A5FA">FK</text>
    <text x="36" y="120" font-family="monospace" font-size="11" fill="#60A5FA">region_id</text>
    <text x="12" y="140" font-family="monospace" font-size="11" fill="#94A3B8">  </text>
    <text x="36" y="140" font-family="monospace" font-size="11" fill="#94A3B8">tier_level</text>
    <text x="12" y="160" font-family="monospace" font-size="11" fill="#94A3B8">  </text>
    <text x="36" y="160" font-family="monospace" font-size="11" fill="#94A3B8">risk_rating</text>
    <text x="150" y="170" font-family="monospace" font-size="10" fill="#64748B">50</text>
  </g>
  
  <!-- MATERIALS Table -->
  <g transform="translate(50, 310)" filter="url(#erdShadow)">
    <rect width="180" height="160" rx="8" fill="#1E293B" stroke="#334155" stroke-width="1"/>
    <rect width="180" height="36" rx="8" fill="url(#erdHeaderGrad)"/>
    <text x="90" y="24" font-family="system-ui, -apple-system, sans-serif" font-size="14" font-weight="600" fill="white" text-anchor="middle">MATERIALS</text>
    <text x="12" y="60" font-family="monospace" font-size="11" fill="#FCD34D">PK</text>
    <text x="36" y="60" font-family="monospace" font-size="11" fill="#E2E8F0">material_id</text>
    <text x="12" y="80" font-family="monospace" font-size="11" fill="#94A3B8">  </text>
    <text x="36" y="80" font-family="monospace" font-size="11" fill="#94A3B8">material_name</text>
    <text x="12" y="100" font-family="monospace" font-size="11" fill="#94A3B8">  </text>
    <text x="36" y="100" font-family="monospace" font-size="11" fill="#94A3B8">category</text>
    <text x="12" y="120" font-family="monospace" font-size="11" fill="#94A3B8">  </text>
    <text x="36" y="120" font-family="monospace" font-size="11" fill="#94A3B8">criticality</text>
    <text x="12" y="140" font-family="monospace" font-size="11" fill="#94A3B8">  </text>
    <text x="36" y="140" font-family="monospace" font-size="11" fill="#94A3B8">unit_cost</text>
    <text x="150" y="150" font-family="monospace" font-size="10" fill="#64748B">26</text>
  </g>
  
  <!-- REGIONS Table -->
  <g transform="translate(50, 500)" filter="url(#erdShadow)">
    <rect width="180" height="140" rx="8" fill="#1E293B" stroke="#334155" stroke-width="1"/>
    <rect width="180" height="36" rx="8" fill="url(#erdHeaderGrad)"/>
    <text x="90" y="24" font-family="system-ui, -apple-system, sans-serif" font-size="14" font-weight="600" fill="white" text-anchor="middle">REGIONS</text>
    <text x="12" y="60" font-family="monospace" font-size="11" fill="#FCD34D">PK</text>
    <text x="36" y="60" font-family="monospace" font-size="11" fill="#E2E8F0">region_id</text>
    <text x="12" y="80" font-family="monospace" font-size="11" fill="#94A3B8">  </text>
    <text x="36" y="80" font-family="monospace" font-size="11" fill="#94A3B8">region_name</text>
    <text x="12" y="100" font-family="monospace" font-size="11" fill="#94A3B8">  </text>
    <text x="36" y="100" font-family="monospace" font-size="11" fill="#94A3B8">base_risk_factor</text>
    <text x="12" y="120" font-family="monospace" font-size="11" fill="#94A3B8">  </text>
    <text x="36" y="120" font-family="monospace" font-size="11" fill="#94A3B8">geo_coordinates</text>
    <text x="150" y="130" font-family="monospace" font-size="10" fill="#64748B">9</text>
  </g>
  
  <!-- PURCHASE_ORDERS Table -->
  <g transform="translate(420, 100)" filter="url(#erdShadow)">
    <rect width="200" height="200" rx="8" fill="#1E293B" stroke="#334155" stroke-width="1"/>
    <rect width="200" height="36" rx="8" fill="url(#erdHeaderGrad)"/>
    <text x="100" y="24" font-family="system-ui, -apple-system, sans-serif" font-size="14" font-weight="600" fill="white" text-anchor="middle">PURCHASE_ORDERS</text>
    <text x="12" y="60" font-family="monospace" font-size="11" fill="#FCD34D">PK</text>
    <text x="36" y="60" font-family="monospace" font-size="11" fill="#E2E8F0">po_id</text>
    <text x="12" y="80" font-family="monospace" font-size="11" fill="#60A5FA">FK</text>
    <text x="36" y="80" font-family="monospace" font-size="11" fill="#60A5FA">vendor_id</text>
    <text x="12" y="100" font-family="monospace" font-size="11" fill="#60A5FA">FK</text>
    <text x="36" y="100" font-family="monospace" font-size="11" fill="#60A5FA">material_id</text>
    <text x="12" y="120" font-family="monospace" font-size="11" fill="#94A3B8">  </text>
    <text x="36" y="120" font-family="monospace" font-size="11" fill="#94A3B8">quantity</text>
    <text x="12" y="140" font-family="monospace" font-size="11" fill="#94A3B8">  </text>
    <text x="36" y="140" font-family="monospace" font-size="11" fill="#94A3B8">order_date</text>
    <text x="12" y="160" font-family="monospace" font-size="11" fill="#94A3B8">  </text>
    <text x="36" y="160" font-family="monospace" font-size="11" fill="#94A3B8">delivery_date</text>
    <text x="12" y="180" font-family="monospace" font-size="11" fill="#94A3B8">  </text>
    <text x="36" y="180" font-family="monospace" font-size="11" fill="#94A3B8">total_value</text>
    <text x="170" y="190" font-family="monospace" font-size="10" fill="#64748B">120</text>
  </g>
  
  <!-- BILL_OF_MATERIALS Table -->
  <g transform="translate(420, 330)" filter="url(#erdShadow)">
    <rect width="200" height="160" rx="8" fill="#1E293B" stroke="#334155" stroke-width="1"/>
    <rect width="200" height="36" rx="8" fill="url(#erdHeaderGrad)"/>
    <text x="100" y="24" font-family="system-ui, -apple-system, sans-serif" font-size="14" font-weight="600" fill="white" text-anchor="middle">BILL_OF_MATERIALS</text>
    <text x="12" y="60" font-family="monospace" font-size="11" fill="#FCD34D">PK</text>
    <text x="36" y="60" font-family="monospace" font-size="11" fill="#E2E8F0">bom_id</text>
    <text x="12" y="80" font-family="monospace" font-size="11" fill="#60A5FA">FK</text>
    <text x="36" y="80" font-family="monospace" font-size="11" fill="#60A5FA">parent_material_id</text>
    <text x="12" y="100" font-family="monospace" font-size="11" fill="#60A5FA">FK</text>
    <text x="36" y="100" font-family="monospace" font-size="11" fill="#60A5FA">child_material_id</text>
    <text x="12" y="120" font-family="monospace" font-size="11" fill="#94A3B8">  </text>
    <text x="36" y="120" font-family="monospace" font-size="11" fill="#94A3B8">quantity_required</text>
    <text x="12" y="140" font-family="monospace" font-size="11" fill="#94A3B8">  </text>
    <text x="36" y="140" font-family="monospace" font-size="11" fill="#94A3B8">substitutable</text>
    <text x="170" y="150" font-family="monospace" font-size="10" fill="#64748B">23</text>
  </g>
  
  <!-- TRADE_DATA Table -->
  <g transform="translate(420, 520)" filter="url(#erdShadow)">
    <rect width="200" height="160" rx="8" fill="#1E293B" stroke="#334155" stroke-width="1"/>
    <rect width="200" height="36" rx="8" fill="url(#erdHeaderGrad)"/>
    <text x="100" y="24" font-family="system-ui, -apple-system, sans-serif" font-size="14" font-weight="600" fill="white" text-anchor="middle">TRADE_DATA</text>
    <text x="12" y="60" font-family="monospace" font-size="11" fill="#FCD34D">PK</text>
    <text x="36" y="60" font-family="monospace" font-size="11" fill="#E2E8F0">trade_id</text>
    <text x="12" y="80" font-family="monospace" font-size="11" fill="#60A5FA">FK</text>
    <text x="36" y="80" font-family="monospace" font-size="11" fill="#60A5FA">source_vendor_id</text>
    <text x="12" y="100" font-family="monospace" font-size="11" fill="#60A5FA">FK</text>
    <text x="36" y="100" font-family="monospace" font-size="11" fill="#60A5FA">dest_vendor_id</text>
    <text x="12" y="120" font-family="monospace" font-size="11" fill="#94A3B8">  </text>
    <text x="36" y="120" font-family="monospace" font-size="11" fill="#94A3B8">trade_volume</text>
    <text x="12" y="140" font-family="monospace" font-size="11" fill="#94A3B8">  </text>
    <text x="36" y="140" font-family="monospace" font-size="11" fill="#94A3B8">confidence_score</text>
    <text x="170" y="150" font-family="monospace" font-size="10" fill="#64748B">150</text>
  </g>
  
  <!-- RISK_SCORES Table (GNN Output) -->
  <g transform="translate(850, 100)" filter="url(#erdShadow)">
    <rect width="200" height="180" rx="8" fill="#1E293B" stroke="#30D158" stroke-width="2"/>
    <rect width="200" height="36" rx="8" fill="url(#erdGnnGrad)"/>
    <text x="100" y="24" font-family="system-ui, -apple-system, sans-serif" font-size="14" font-weight="600" fill="white" text-anchor="middle">RISK_SCORES</text>
    <text x="12" y="60" font-family="monospace" font-size="11" fill="#FCD34D">PK</text>
    <text x="36" y="60" font-family="monospace" font-size="11" fill="#E2E8F0">score_id</text>
    <text x="12" y="80" font-family="monospace" font-size="11" fill="#60A5FA">FK</text>
    <text x="36" y="80" font-family="monospace" font-size="11" fill="#60A5FA">vendor_id</text>
    <text x="12" y="100" font-family="monospace" font-size="11" fill="#94A3B8">  </text>
    <text x="36" y="100" font-family="monospace" font-size="11" fill="#94A3B8">risk_score</text>
    <text x="12" y="120" font-family="monospace" font-size="11" fill="#94A3B8">  </text>
    <text x="36" y="120" font-family="monospace" font-size="11" fill="#94A3B8">risk_category</text>
    <text x="12" y="140" font-family="monospace" font-size="11" fill="#94A3B8">  </text>
    <text x="36" y="140" font-family="monospace" font-size="11" fill="#94A3B8">embedding_vector</text>
    <text x="12" y="160" font-family="monospace" font-size="11" fill="#94A3B8">  </text>
    <text x="36" y="160" font-family="monospace" font-size="11" fill="#94A3B8">computed_at</text>
    <text x="170" y="170" font-family="monospace" font-size="10" fill="#30D158">86</text>
  </g>
  
  <!-- PREDICTED_LINKS Table (GNN Output) -->
  <g transform="translate(850, 310)" filter="url(#erdShadow)">
    <rect width="200" height="180" rx="8" fill="#1E293B" stroke="#30D158" stroke-width="2"/>
    <rect width="200" height="36" rx="8" fill="url(#erdGnnGrad)"/>
    <text x="100" y="24" font-family="system-ui, -apple-system, sans-serif" font-size="14" font-weight="600" fill="white" text-anchor="middle">PREDICTED_LINKS</text>
    <text x="12" y="60" font-family="monospace" font-size="11" fill="#FCD34D">PK</text>
    <text x="36" y="60" font-family="monospace" font-size="11" fill="#E2E8F0">link_id</text>
    <text x="12" y="80" font-family="monospace" font-size="11" fill="#60A5FA">FK</text>
    <text x="36" y="80" font-family="monospace" font-size="11" fill="#60A5FA">source_vendor_id</text>
    <text x="12" y="100" font-family="monospace" font-size="11" fill="#60A5FA">FK</text>
    <text x="36" y="100" font-family="monospace" font-size="11" fill="#60A5FA">target_vendor_id</text>
    <text x="12" y="120" font-family="monospace" font-size="11" fill="#94A3B8">  </text>
    <text x="36" y="120" font-family="monospace" font-size="11" fill="#94A3B8">confidence</text>
    <text x="12" y="140" font-family="monospace" font-size="11" fill="#94A3B8">  </text>
    <text x="36" y="140" font-family="monospace" font-size="11" fill="#94A3B8">link_type</text>
    <text x="12" y="160" font-family="monospace" font-size="11" fill="#94A3B8">  </text>
    <text x="36" y="160" font-family="monospace" font-size="11" fill="#94A3B8">predicted_at</text>
    <text x="170" y="170" font-family="monospace" font-size="10" fill="#30D158">339</text>
  </g>
  
  <!-- BOTTLENECKS Table (GNN Output) -->
  <g transform="translate(850, 520)" filter="url(#erdShadow)">
    <rect width="200" height="160" rx="8" fill="#1E293B" stroke="#30D158" stroke-width="2"/>
    <rect width="200" height="36" rx="8" fill="url(#erdGnnGrad)"/>
    <text x="100" y="24" font-family="system-ui, -apple-system, sans-serif" font-size="14" font-weight="600" fill="white" text-anchor="middle">BOTTLENECKS</text>
    <text x="12" y="60" font-family="monospace" font-size="11" fill="#FCD34D">PK</text>
    <text x="36" y="60" font-family="monospace" font-size="11" fill="#E2E8F0">bottleneck_id</text>
    <text x="12" y="80" font-family="monospace" font-size="11" fill="#60A5FA">FK</text>
    <text x="36" y="80" font-family="monospace" font-size="11" fill="#60A5FA">vendor_id</text>
    <text x="12" y="100" font-family="monospace" font-size="11" fill="#94A3B8">  </text>
    <text x="36" y="100" font-family="monospace" font-size="11" fill="#94A3B8">severity_score</text>
    <text x="12" y="120" font-family="monospace" font-size="11" fill="#94A3B8">  </text>
    <text x="36" y="120" font-family="monospace" font-size="11" fill="#94A3B8">affected_paths</text>
    <text x="12" y="140" font-family="monospace" font-size="11" fill="#94A3B8">  </text>
    <text x="36" y="140" font-family="monospace" font-size="11" fill="#94A3B8">mitigation_priority</text>
    <text x="170" y="150" font-family="monospace" font-size="10" fill="#30D158">10</text>
  </g>
  
  <!-- Relationship Lines -->
  <!-- Vendors to Purchase Orders -->
  <path d="M 230 180 L 420 180" stroke="#60A5FA" stroke-width="2" fill="none" marker-end="url(#arrow)"/>
  
  <!-- Vendors to Risk Scores -->
  <path d="M 230 200 Q 400 200 400 120 Q 400 100 750 100 Q 850 100 850 180" stroke="#30D158" stroke-width="2" fill="none" stroke-dasharray="6,3"/>
  
  <!-- Vendors to Predicted Links (source) -->
  <path d="M 230 220 Q 540 220 540 280 Q 540 340 700 380 Q 850 380 850 380" stroke="#30D158" stroke-width="2" fill="none" stroke-dasharray="6,3"/>
  
  <!-- Vendors to Bottlenecks -->
  <path d="M 230 240 Q 540 400 700 500 Q 850 580 850 580" stroke="#30D158" stroke-width="2" fill="none" stroke-dasharray="6,3"/>
  
  <!-- Materials to Purchase Orders -->
  <path d="M 230 380 Q 350 380 350 220 L 420 220" stroke="#60A5FA" stroke-width="2" fill="none"/>
  
  <!-- Materials to BOM (self-referential shown as link to table) -->
  <path d="M 230 400 Q 320 400 320 400 L 420 400" stroke="#60A5FA" stroke-width="2" fill="none"/>
  
  <!-- Regions to Vendors -->
  <path d="M 140 500 L 140 280" stroke="#60A5FA" stroke-width="2" fill="none" marker-end="url(#arrow)"/>
  
  <!-- Trade Data to Vendors -->
  <path d="M 420 600 Q 300 600 300 400 Q 300 250 230 250" stroke="#60A5FA" stroke-width="2" fill="none"/>
  
  <!-- Arrow marker -->
  <defs>
    <marker id="arrow" markerWidth="10" markerHeight="10" refX="9" refY="3" orient="auto" markerUnits="strokeWidth">
      <path d="M0,0 L0,6 L9,3 z" fill="#60A5FA"/>
    </marker>
  </defs>
  
  <!-- Legend -->
  <g transform="translate(680, 640)">
    <rect x="0" y="0" width="220" height="50" rx="6" fill="#1E293B" stroke="#334155"/>
    <line x1="15" y1="20" x2="45" y2="20" stroke="#60A5FA" stroke-width="2"/>
    <text x="55" y="24" font-family="system-ui, -apple-system, sans-serif" font-size="11" fill="#94A3B8">Foreign Key</text>
    <line x1="120" y1="20" x2="150" y2="20" stroke="#30D158" stroke-width="2" stroke-dasharray="6,3"/>
    <text x="160" y="24" font-family="system-ui, -apple-system, sans-serif" font-size="11" fill="#94A3B8">GNN Output</text>
  </g>
  
  <!-- GNN Process Arrow -->
  <g transform="translate(650, 400)">
    <rect x="0" y="0" width="120" height="40" rx="20" fill="#0f172a" stroke="#30D158" stroke-width="2"/>
    <text x="60" y="26" font-family="system-ui, -apple-system, sans-serif" font-size="12" font-weight="500" fill="#30D158" text-anchor="middle">GNN Model</text>
  </g>
  <path d="M 620 200 Q 680 200 700 380 Q 720 400 770 400" stroke="#30D158" stroke-width="2" fill="none" stroke-dasharray="4,4" marker-end="url(#arrowGreen)"/>
  <path d="M 620 410 L 650 410" stroke="#30D158" stroke-width="2" fill="none" stroke-dasharray="4,4"/>
  <path d="M 620 600 Q 680 600 700 440 Q 720 420 770 420" stroke="#30D158" stroke-width="2" fill="none" stroke-dasharray="4,4"/>
  
  <defs>
    <marker id="arrowGreen" markerWidth="10" markerHeight="10" refX="9" refY="3" orient="auto" markerUnits="strokeWidth">
      <path d="M0,0 L0,6 L9,3 z" fill="#30D158"/>
    </marker>
  </defs>
</svg>
